<svg width="28" height="28" viewBox="0 0 28 28" fill="none" xmlns="http://www.w3.org/2000/svg">
<path d="M13.8143 0C11.0821 0 8.41124 0.812718 6.13949 2.33538C3.86774 3.85804 2.09713 6.02226 1.05156 8.55435C0.00598558 11.0864 -0.267584 13.8727 0.265444 16.5607C0.798472 19.2488 2.11416 21.7179 4.04612 23.6559C5.97809 25.5939 8.43956 26.9137 11.1193 27.4484C13.799 27.9831 16.5766 27.7086 19.1008 26.6598C21.625 25.611 23.7825 23.8349 25.3005 21.556C26.8184 19.2772 27.6286 16.598 27.6286 13.8573C27.6286 10.1821 26.1732 6.65747 23.5825 4.05871C20.9918 1.45996 17.4781 0 13.8143 0V0ZM22.8718 18.3246C22.8718 19.6775 22.4803 20.6809 21.6875 21.323C20.8947 21.9651 19.8337 22.2695 18.4869 22.2695C18.2207 22.2695 18.0113 22.2695 17.8625 22.2518C17.8181 22.2503 17.7744 22.2399 17.7341 22.2212C17.6938 22.2026 17.6576 22.176 17.6277 22.143C17.5977 22.1101 17.5747 22.0715 17.5599 22.0294C17.5451 21.9874 17.5388 21.9429 17.5414 21.8984L17.5767 21.0854C17.5751 21.0386 17.5842 20.9919 17.6032 20.9491C17.6222 20.9062 17.6506 20.8683 17.6863 20.838C17.7198 20.8099 17.7593 20.7898 17.8017 20.7793C17.844 20.7687 17.8883 20.768 17.931 20.7771L18.3871 20.7928C19.4207 20.7928 20.1782 20.5965 20.6363 20.192C20.7117 20.132 20.7823 20.0664 20.8477 19.9956C21.2549 19.5224 21.2157 19.0707 21.0572 18.8174C20.9797 18.7026 20.8656 18.6176 20.7337 18.5762C20.6018 18.5349 20.4598 18.5396 20.3309 18.5897L20.2565 18.6132C19.8839 18.746 19.493 18.8202 19.0977 18.8332C18.3455 18.8437 17.6088 18.6193 16.9894 18.191C16.3679 17.7551 15.9265 17.1063 15.7483 16.3668C15.6135 15.8227 15.5439 15.2643 15.5409 14.7036C15.5384 14.6795 15.5384 14.6551 15.5409 14.631L15.5056 8.90898C15.5162 8.64447 15.4746 8.38047 15.3832 8.13212C15.2919 7.88378 15.1525 7.65597 14.9732 7.46178C14.7957 7.28488 14.5834 7.14705 14.3498 7.05712C14.1162 6.96718 13.8665 6.92711 13.6166 6.93946C13.3588 6.92824 13.1013 6.96981 12.86 7.06164C12.6187 7.15346 12.3986 7.29362 12.213 7.47357C12.0322 7.66146 11.8923 7.88508 11.8023 8.13018C11.7123 8.37529 11.6742 8.6365 11.6904 8.8972L11.7276 14.6565C11.7317 14.7018 11.7259 14.7475 11.7106 14.7903C11.6953 14.8332 11.6709 14.8721 11.639 14.9045C11.6071 14.9368 11.5686 14.9618 11.526 14.9777C11.4835 14.9935 11.4381 14.9998 11.3928 14.9962H10.4865C10.3963 14.9981 10.3085 14.9667 10.2399 14.9079C10.2087 14.8749 10.1843 14.8361 10.1682 14.7936C10.152 14.7511 10.1445 14.7059 10.1459 14.6604L10.1107 8.93647C10.1305 8.40664 9.94288 7.89005 9.588 7.49713C9.41308 7.32019 9.20284 7.18235 8.97107 7.09267C8.73929 7.00299 8.49124 6.96349 8.24317 6.97677H8.22555C7.97166 6.96519 7.71814 7.0065 7.48095 7.09808C7.24377 7.18967 7.02807 7.32955 6.84745 7.50891C6.6728 7.70038 6.53813 7.92498 6.45139 8.16949C6.36465 8.41399 6.3276 8.67344 6.34241 8.93254L6.3796 14.6919C6.3837 14.7373 6.3779 14.783 6.36261 14.8259C6.34732 14.8688 6.32291 14.9079 6.29106 14.9404C6.25921 14.9729 6.2207 14.9981 6.17818 15.0142C6.13567 15.0302 6.09018 15.0368 6.04486 15.0335H5.13657C5.09154 15.0356 5.04656 15.0287 5.00422 15.0132C4.96188 14.9977 4.92303 14.9739 4.88992 14.9432C4.85871 14.9103 4.83447 14.8715 4.81866 14.8289C4.80284 14.7864 4.79579 14.7411 4.79792 14.6958L4.75681 9.93006V8.66941C4.80183 8.08033 5.01716 7.22811 5.38713 6.72935C5.70211 6.27373 6.14108 5.9186 6.6517 5.7063C7.16284 5.52906 7.70041 5.44073 8.24121 5.44514H8.25883C8.85574 5.45041 9.4421 5.60353 9.9658 5.89088C10.3613 6.11022 10.6864 6.43778 10.9035 6.83539C11.1772 6.42073 11.5554 6.08607 11.9997 5.86536C12.5451 5.61045 13.1424 5.48738 13.7438 5.50601H13.7693C14.1938 5.49372 14.6165 5.56563 15.0132 5.7176C15.4099 5.86957 15.7729 6.09862 16.0811 6.39161C16.6967 7.02197 17.0472 7.86562 17.0599 8.74796L17.0756 9.33705C17.0727 9.3946 17.085 9.4519 17.1111 9.50323C17.1372 9.55456 17.1762 9.59814 17.2243 9.62963C17.3133 9.68034 17.4133 9.70861 17.5155 9.71203C17.6178 9.71545 17.7194 9.69391 17.8116 9.64926C18.2064 9.51354 18.6216 9.44711 19.039 9.4529H19.3757C20.1223 9.4347 20.8528 9.67227 21.4467 10.1264C22.0206 10.5737 22.4374 11.1927 22.6369 11.8937C22.7412 12.2119 22.807 12.5415 22.8327 12.8755C22.862 13.227 22.8757 13.661 22.8757 14.1852L22.8718 18.3246Z" fill="#212121"/>
<path d="M21.1198 13.5488C21.212 13.3137 21.2592 13.0632 21.2588 12.8105C21.2709 12.5322 21.2267 12.2543 21.1289 11.9935C21.031 11.7328 20.8816 11.4946 20.6895 11.2934C20.4975 11.0921 20.2668 10.932 20.0114 10.8226C19.756 10.7131 19.4811 10.6567 19.2034 10.6567C18.9256 10.6567 18.6508 10.7131 18.3954 10.8226C18.1399 10.932 17.9093 11.0921 17.7172 11.2934C17.5252 11.4946 17.3757 11.7328 17.2779 11.9935C17.18 12.2543 17.1358 12.5322 17.148 12.8105C17.148 12.8419 17.148 12.8734 17.148 12.9048C17.0202 13.2048 16.9657 13.5311 16.9888 13.8566C17.012 14.182 17.1122 14.4973 17.2811 14.7761C17.1745 15.0585 17.1311 15.3609 17.1539 15.6619C17.1766 15.963 17.265 16.2553 17.4128 16.5183C17.5606 16.7813 17.7641 17.0086 18.0091 17.184C18.254 17.3595 18.5344 17.4788 18.8304 17.5336C19.1263 17.5884 19.4307 17.5773 19.7219 17.5011C20.0132 17.4249 20.2842 17.2855 20.5158 17.0928C20.7474 16.9 20.934 16.6585 21.0624 16.3855C21.1908 16.1124 21.2578 15.8144 21.2588 15.5125C21.2588 15.4791 21.2588 15.4477 21.2588 15.4163C21.3868 15.1162 21.4414 14.7897 21.4179 14.4641C21.3944 14.1385 21.2935 13.8234 21.1237 13.5449L21.1198 13.5488ZM19.2034 11.0668C19.6639 11.0673 20.1054 11.2509 20.4313 11.5774C20.7571 11.9039 20.9406 12.3466 20.9417 12.8086C20.9417 12.84 20.9417 12.8714 20.9417 12.9028C20.8075 12.5864 20.5964 12.3087 20.3277 12.0952C20.059 11.8817 19.7412 11.7392 19.4034 11.6806C19.0656 11.622 18.7186 11.6492 18.394 11.7598C18.0694 11.8704 17.7777 12.0609 17.5453 12.3137C17.6516 11.9547 17.8701 11.6394 18.1687 11.4145C18.4673 11.1897 18.83 11.0671 19.2034 11.0649V11.0668ZM17.3613 14.1379C17.3252 13.9968 17.3068 13.8517 17.3065 13.7059C17.3065 13.6745 17.3065 13.6431 17.3065 13.6117C17.3194 13.3873 17.3746 13.1675 17.469 12.9637C17.6095 12.6626 17.833 12.4083 18.1131 12.2307C18.3932 12.0531 18.7181 11.9597 19.0495 11.9616C19.3808 11.9634 19.7047 12.0605 19.9828 12.2412C20.2609 12.4219 20.4815 12.6788 20.6187 12.9814C20.3916 12.8036 20.1298 12.6758 19.8502 12.6063C19.5706 12.5368 19.2796 12.5273 18.996 12.5782C18.7125 12.6292 18.4429 12.7395 18.2047 12.902C17.9666 13.0645 17.7652 13.2755 17.6139 13.5214C17.5449 13.6328 17.4866 13.7505 17.4396 13.8728C17.4076 13.9593 17.3814 14.0479 17.3613 14.1379V14.1379ZM20.8673 16.0093C20.7468 16.409 20.4873 16.7521 20.136 16.9762C19.7847 17.2002 19.3649 17.2904 18.9529 17.2302C18.541 17.17 18.1642 16.9636 17.8912 16.6484C17.6181 16.3331 17.4669 15.9301 17.4651 15.5125C17.4651 15.4791 17.4651 15.4477 17.4651 15.4163C17.4767 15.1923 17.5319 14.9729 17.6276 14.7702C17.6313 14.76 17.6359 14.7502 17.6413 14.7408C17.7034 14.6121 17.7817 14.492 17.8742 14.3834C17.9441 14.3024 18.0207 14.2275 18.1032 14.1595C18.4547 13.8717 18.9049 13.7339 19.3567 13.7758C19.8085 13.8176 20.2258 14.0358 20.5188 14.3834C20.5453 14.4141 20.5701 14.4462 20.5932 14.4796C20.6705 14.5777 20.7362 14.6844 20.789 14.7977C20.8673 14.973 20.9162 15.1601 20.9338 15.3515C20.9394 15.4049 20.942 15.4587 20.9417 15.5125C20.9412 15.6821 20.9161 15.8508 20.8673 16.0132V16.0093ZM21.0963 14.7035C21.0568 14.6149 21.0117 14.529 20.9612 14.4462C20.8979 14.3452 20.8258 14.2499 20.7459 14.1615L20.7224 14.134C20.6614 14.0644 20.596 13.9988 20.5267 13.9376C20.1568 13.6244 19.6884 13.4525 19.2043 13.4525C18.7203 13.4525 18.2519 13.6244 17.882 13.9376C17.818 13.993 17.7573 14.052 17.7 14.1144C17.7277 14.021 17.7637 13.9303 17.8076 13.8434C17.9393 13.5752 18.1376 13.3456 18.3835 13.1766C18.6294 13.0077 18.9145 12.9051 19.2113 12.8789C19.5082 12.8527 19.8068 12.9036 20.0783 13.0268C20.3499 13.15 20.5852 13.3413 20.7616 13.5822C20.7679 13.5886 20.7732 13.5959 20.7772 13.6038C20.8441 13.6964 20.9012 13.7958 20.9475 13.9003C20.9892 13.9912 21.0219 14.0859 21.0454 14.1831C21.0823 14.3235 21.1014 14.468 21.1022 14.6131C21.1002 14.6445 21.0963 14.676 21.0963 14.7074V14.7035Z" fill="#212121"/>
</svg>
