<svg width="59" height="59" viewBox="0 0 59 59" fill="none" xmlns="http://www.w3.org/2000/svg">
<path d="M29.1857 0C23.4133 0 17.7706 1.71704 12.971 4.93399C8.17144 8.15094 4.43064 12.7233 2.22164 18.0729C0.0126458 23.4225 -0.565328 29.309 0.560808 34.9881C1.68694 40.6672 4.46661 45.8838 8.5483 49.9782C12.63 54.0726 17.8304 56.861 23.4919 57.9906C29.1533 59.1202 35.0216 58.5405 40.3546 56.3246C45.6876 54.1087 50.2458 50.3563 53.4527 45.5418C56.6597 40.7273 58.3714 35.0669 58.3714 29.2766C58.3714 21.5119 55.2965 14.0653 49.8231 8.57491C44.3497 3.08449 36.9262 0 29.1857 0V0ZM48.3216 38.7146C48.3216 41.573 47.4945 43.6929 45.8195 45.0495C44.1446 46.4061 41.903 47.0491 39.0576 47.0491C38.4952 47.0491 38.0527 47.0491 37.7383 47.0118C37.6445 47.0086 37.5523 46.9867 37.4671 46.9472C37.3819 46.9077 37.3054 46.8515 37.2422 46.7819C37.179 46.7123 37.1303 46.6307 37.099 46.5419C37.0678 46.4532 37.0545 46.359 37.0601 46.265L37.1345 44.5475C37.1312 44.4485 37.1504 44.35 37.1905 44.2595C37.2306 44.1689 37.2907 44.0887 37.3661 44.0248C37.4369 43.9654 37.5203 43.923 37.6098 43.9007C37.6994 43.8784 37.7928 43.8769 37.8831 43.8962L38.8467 43.9294C41.0304 43.9294 42.6309 43.5145 43.5986 42.6599C43.7578 42.5332 43.9072 42.3945 44.0453 42.245C44.9055 41.2452 44.8228 40.2911 44.4878 39.7559C44.3241 39.5134 44.0832 39.3337 43.8045 39.2463C43.5258 39.1589 43.2258 39.1689 42.9535 39.2747L42.7963 39.3244C42.009 39.605 41.1831 39.7618 40.348 39.7891C38.7589 39.8114 37.2023 39.3373 35.8938 38.4325C34.5806 37.5114 33.6482 36.1408 33.2718 34.5785C32.9869 33.4288 32.8398 32.2492 32.8334 31.0646C32.8282 31.0136 32.8282 30.9621 32.8334 30.9111L32.759 18.8221C32.7813 18.2633 32.6935 17.7055 32.5004 17.1809C32.3074 16.6562 32.013 16.1749 31.634 15.7646C31.2591 15.3909 30.8105 15.0997 30.317 14.9097C29.8235 14.7197 29.296 14.635 28.768 14.6611C28.2233 14.6374 27.6794 14.7252 27.1696 14.9192C26.6598 15.1132 26.1947 15.4093 25.8027 15.7895C25.4206 16.1865 25.125 16.6589 24.9349 17.1768C24.7448 17.6946 24.6643 18.2465 24.6985 18.7972L24.777 30.965C24.7858 31.0608 24.7736 31.1573 24.7412 31.2478C24.7089 31.3382 24.6572 31.4206 24.5899 31.4889C24.5225 31.5573 24.4411 31.6101 24.3512 31.6435C24.2614 31.677 24.1654 31.6904 24.0698 31.6828H22.155C21.9644 31.6867 21.7789 31.6203 21.6339 31.4961C21.568 31.4264 21.5165 31.3444 21.4824 31.2546C21.4484 31.1649 21.4324 31.0693 21.4354 30.9733L21.3609 18.8802C21.4028 17.7608 21.0065 16.6694 20.2567 15.8393C19.8872 15.4655 19.443 15.1743 18.9533 14.9848C18.4636 14.7953 17.9396 14.7119 17.4155 14.7399H17.3783C16.8419 14.7155 16.3062 14.8027 15.8051 14.9962C15.304 15.1897 14.8483 15.4853 14.4667 15.8642C14.0977 16.2687 13.8132 16.7432 13.63 17.2598C13.4467 17.7764 13.3684 18.3245 13.3997 18.8719L13.4783 31.0397C13.4869 31.1356 13.4747 31.2323 13.4424 31.3229C13.4101 31.4136 13.3585 31.4961 13.2912 31.5648C13.2239 31.6335 13.1426 31.6867 13.0527 31.7206C12.9629 31.7546 12.8668 31.7686 12.7711 31.7616H10.8521C10.757 31.7659 10.6619 31.7513 10.5725 31.7185C10.483 31.6858 10.401 31.6355 10.331 31.5707C10.2651 31.5013 10.2139 31.4192 10.1804 31.3293C10.147 31.2395 10.1321 31.1438 10.1366 31.048L10.0498 20.9794V18.316C10.1449 17.0714 10.5998 15.2709 11.3815 14.2172C12.0469 13.2546 12.9744 12.5043 14.0531 12.0558C15.133 11.6813 16.2688 11.4947 17.4113 11.504H17.4486C18.7097 11.5152 19.9485 11.8387 21.0549 12.4458C21.8904 12.9092 22.5774 13.6012 23.0359 14.4412C23.6142 13.5652 24.4132 12.8581 25.3519 12.3918C26.5042 11.8533 27.7662 11.5933 29.0368 11.6326H29.0906C29.9874 11.6067 30.8805 11.7586 31.7187 12.0797C32.5568 12.4007 33.3236 12.8846 33.9749 13.5036C35.2754 14.8354 36.0158 16.6178 36.0427 18.4819L36.0758 19.7265C36.0698 19.8481 36.0957 19.9692 36.1508 20.0776C36.206 20.1861 36.2885 20.2781 36.3901 20.3447C36.5781 20.4518 36.7893 20.5115 37.0054 20.5188C37.2215 20.526 37.4361 20.4805 37.6308 20.3862C38.465 20.0994 39.3422 19.9591 40.2239 19.9713H40.9352C42.5126 19.9328 44.056 20.4348 45.3108 21.3943C46.5232 22.3392 47.4039 23.647 47.8253 25.128C48.0458 25.8002 48.1846 26.4967 48.2389 27.2023C48.3009 27.9449 48.3299 28.8617 48.3299 29.9694L48.3216 38.7146Z" fill="#212121"/>
<path d="M44.6202 28.6252C44.8151 28.1284 44.9147 27.5992 44.9138 27.0653C44.9394 26.4773 44.846 25.8902 44.6393 25.3393C44.4326 24.7884 44.1169 24.2852 43.7111 23.8601C43.3054 23.4349 42.818 23.0965 42.2784 22.8654C41.7388 22.6342 41.1581 22.515 40.5713 22.515C39.9845 22.515 39.4038 22.6342 38.8642 22.8654C38.3246 23.0965 37.8372 23.4349 37.4315 23.8601C37.0257 24.2852 36.71 24.7884 36.5033 25.3393C36.2966 25.8902 36.2032 26.4773 36.2288 27.0653C36.2288 27.1317 36.2288 27.1981 36.2288 27.2645C35.959 27.8984 35.8437 28.5878 35.8926 29.2754C35.9415 29.963 36.1532 30.629 36.51 31.2181C36.2849 31.8146 36.1932 32.4535 36.2413 33.0895C36.2893 33.7255 36.4761 34.3432 36.7883 34.8989C37.1005 35.4546 37.5306 35.9347 38.0481 36.3053C38.5656 36.6759 39.1579 36.928 39.7832 37.0438C40.4085 37.1596 41.0516 37.1362 41.6669 36.9752C42.2822 36.8143 42.8548 36.5198 43.3441 36.1125C43.8335 35.7052 44.2277 35.1951 44.499 34.6182C44.7702 34.0413 44.9118 33.4116 44.9138 32.7738C44.9138 32.7033 44.9138 32.6369 44.9138 32.5705C45.1844 31.9365 45.2997 31.2468 45.25 30.5589C45.2004 29.8711 44.9872 29.2052 44.6284 28.6169L44.6202 28.6252ZM40.5713 23.3814C41.5443 23.3825 42.4771 23.7704 43.1655 24.4601C43.8539 25.1499 44.2416 26.0852 44.2438 27.0612C44.2438 27.1276 44.2438 27.1939 44.2438 27.2603C43.9603 26.5918 43.5143 26.0052 42.9466 25.5541C42.3789 25.103 41.7076 24.8019 40.9939 24.6781C40.2803 24.5543 39.5471 24.6119 38.8614 24.8455C38.1756 25.0792 37.5592 25.4815 37.0684 26.0157C37.2928 25.2572 37.7546 24.5912 38.3853 24.1161C39.0161 23.6409 39.7825 23.3819 40.5713 23.3772V23.3814ZM36.6796 29.8698C36.6032 29.5716 36.5643 29.265 36.5638 28.9571C36.5638 28.8907 36.5638 28.8243 36.5638 28.758C36.5911 28.284 36.7076 27.8195 36.9071 27.3889C37.2039 26.7529 37.6761 26.2155 38.2678 25.8403C38.8596 25.4651 39.5461 25.2678 40.2461 25.2717C40.9462 25.2757 41.6305 25.4807 42.218 25.8625C42.8055 26.2443 43.2717 26.787 43.5614 27.4263C43.0817 27.0506 42.5285 26.7806 41.9378 26.6339C41.3472 26.4871 40.7323 26.4669 40.1333 26.5746C39.5343 26.6822 38.9646 26.9153 38.4615 27.2586C37.9583 27.602 37.5329 28.0478 37.2131 28.5671C37.0675 28.8025 36.9443 29.0512 36.845 29.3097C36.7773 29.4924 36.7221 29.6796 36.6796 29.8698V29.8698ZM44.0866 33.8234C43.8321 34.6679 43.2839 35.3928 42.5417 35.8661C41.7995 36.3395 40.9126 36.53 40.0422 36.4029C39.1719 36.2758 38.3759 35.8396 37.799 35.1736C37.2222 34.5076 36.9027 33.6561 36.8988 32.7738C36.8988 32.7033 36.8988 32.6369 36.8988 32.5705C36.9233 32.0974 37.04 31.6338 37.2421 31.2056C37.25 31.1841 37.2597 31.1633 37.271 31.1434C37.4022 30.8717 37.5676 30.6179 37.7632 30.3884C37.9109 30.2173 38.0727 30.0591 38.247 29.9154C38.9897 29.3073 39.9407 29.0162 40.8952 29.1046C41.8498 29.1931 42.7315 29.6541 43.3505 30.3884C43.4064 30.4533 43.4589 30.5211 43.5077 30.5916C43.671 30.7989 43.8097 31.0244 43.9212 31.2637C44.0867 31.6341 44.1901 32.0294 44.2273 32.4336C44.2391 32.5466 44.2446 32.6602 44.2438 32.7738C44.2428 33.1322 44.1898 33.4885 44.0866 33.8317V33.8234ZM44.5705 31.0646C44.487 30.8775 44.3917 30.696 44.2852 30.5211C44.1513 30.3077 43.9991 30.1064 43.8302 29.9196L43.7806 29.8615C43.6518 29.7144 43.5136 29.5759 43.367 29.4466C42.5857 28.7848 41.596 28.4217 40.5734 28.4217C39.5507 28.4217 38.561 28.7848 37.7797 29.4466C37.6445 29.5636 37.5161 29.6883 37.3951 29.82C37.4536 29.6227 37.5298 29.4311 37.6225 29.2475C37.9007 28.6809 38.3197 28.1957 38.8391 27.8388C39.3586 27.4819 39.9609 27.2653 40.5881 27.2098C41.2153 27.1544 41.8462 27.262 42.4199 27.5222C42.9935 27.7825 43.4907 28.1867 43.8633 28.6957C43.8766 28.7091 43.8878 28.7245 43.8964 28.7414C44.0378 28.937 44.1584 29.147 44.2562 29.3678C44.3442 29.5598 44.4134 29.7599 44.463 29.9652C44.541 30.2618 44.5813 30.567 44.5829 30.8737C44.5788 30.9401 44.5705 31.0065 44.5705 31.0729V31.0646Z" fill="#212121"/>
</svg>
