<svg width="320" height="36" viewBox="0 0 320 36" fill="none" xmlns="http://www.w3.org/2000/svg">
<g filter="url(#filter0_d_2502_954)">
<rect width="320" height="32" rx="16" fill="#FAFAFA"/>
<rect x="1" y="1" width="318" height="30" rx="15" stroke="black" stroke-width="2"/>
</g>
<rect x="2" y="2" width="129" height="28" rx="14" fill="#FFB900"/>
<line x1="208" y1="2" x2="208" y2="30" stroke="black" stroke-width="2"/>
<rect x="112" y="2" width="31.2558" height="28" fill="white"/>
<line x1="112.646" y1="7.64645" x2="118.646" y2="1.64645" stroke="black"/>
<line x1="112.646" y1="13.6464" x2="124.646" y2="1.64645" stroke="black"/>
<line x1="112.646" y1="19.6464" x2="130.646" y2="1.64645" stroke="black"/>
<line x1="112.646" y1="25.6464" x2="136.646" y2="1.64645" stroke="black"/>
<line x1="124.646" y1="31.6464" x2="154.646" y2="1.64645" stroke="black"/>
<line x1="143.646" y1="30.6464" x2="172.646" y2="1.64645" stroke="black"/>
<line x1="113.646" y1="30.6464" x2="142.646" y2="1.64645" stroke="black"/>
<line x1="131.646" y1="30.6464" x2="160.646" y2="1.64645" stroke="black"/>
<line x1="149.646" y1="30.6464" x2="178.646" y2="1.64645" stroke="black"/>
<line x1="119.646" y1="30.6464" x2="148.646" y2="1.64645" stroke="black"/>
<line x1="137.646" y1="30.6464" x2="166.646" y2="1.64645" stroke="black"/>
<line x1="155.646" y1="30.6464" x2="184.646" y2="1.64645" stroke="black"/>
<line x1="161.646" y1="30.6464" x2="190.646" y2="1.64645" stroke="black"/>
<line x1="167.646" y1="30.6464" x2="196.646" y2="1.64645" stroke="black"/>
<line x1="173.646" y1="30.6464" x2="202.646" y2="1.64645" stroke="black"/>
<line x1="179.646" y1="30.6464" x2="207.646" y2="2.64645" stroke="black"/>
<line x1="185.646" y1="30.6464" x2="207.646" y2="8.64645" stroke="black"/>
<line x1="191.646" y1="30.6464" x2="207.646" y2="14.6464" stroke="black"/>
<line x1="197.646" y1="30.6464" x2="207.646" y2="20.6464" stroke="black"/>
<line x1="203.646" y1="30.6464" x2="207.646" y2="26.6464" stroke="black"/>
<line x1="113" y1="2" x2="113" y2="30" stroke="black" stroke-width="2"/>
<defs>
<filter id="filter0_d_2502_954" x="0" y="0" width="320" height="36" filterUnits="userSpaceOnUse" color-interpolation-filters="sRGB">
<feFlood flood-opacity="0" result="BackgroundImageFix"/>
<feColorMatrix in="SourceAlpha" type="matrix" values="0 0 0 0 0 0 0 0 0 0 0 0 0 0 0 0 0 0 127 0" result="hardAlpha"/>
<feOffset dy="4"/>
<feComposite in2="hardAlpha" operator="out"/>
<feColorMatrix type="matrix" values="0 0 0 0 0 0 0 0 0 0 0 0 0 0 0 0 0 0 1 0"/>
<feBlend mode="normal" in2="BackgroundImageFix" result="effect1_dropShadow_2502_954"/>
<feBlend mode="normal" in="SourceGraphic" in2="effect1_dropShadow_2502_954" result="shape"/>
</filter>
</defs>
</svg>
