<svg width="20" height="20" viewBox="0 0 20 20" fill="none" xmlns="http://www.w3.org/2000/svg">
<path fill-rule="evenodd" clip-rule="evenodd" d="M10 3.33332C6.3181 3.33332 3.33333 6.31809 3.33333 9.99999C3.33333 13.6819 6.3181 16.6667 10 16.6667C13.6819 16.6667 16.6667 13.6819 16.6667 9.99999C16.6667 6.31809 13.6819 3.33332 10 3.33332ZM1.66666 9.99999C1.66666 5.39762 5.39762 1.66666 10 1.66666C14.6024 1.66666 18.3333 5.39762 18.3333 9.99999C18.3333 14.6024 14.6024 18.3333 10 18.3333C5.39762 18.3333 1.66666 14.6024 1.66666 9.99999ZM10 6.66666C10.4602 6.66666 10.8333 7.03975 10.8333 7.49999V9.16666H12.5C12.9602 9.16666 13.3333 9.53975 13.3333 9.99999C13.3333 10.4602 12.9602 10.8333 12.5 10.8333H10.8333V12.5C10.8333 12.9602 10.4602 13.3333 10 13.3333C9.53976 13.3333 9.16666 12.9602 9.16666 12.5V10.8333H7.5C7.03976 10.8333 6.66666 10.4602 6.66666 9.99999C6.66666 9.53975 7.03976 9.16666 7.5 9.16666H9.16666V7.49999C9.16666 7.03975 9.53976 6.66666 10 6.66666Z" fill="white"/>
</svg>
